# xmcd
#
# Track frame offsets:
#	150
#	19044
#	45087
#	67306
#	95340
#	114172
#	146014
#	173337
#	193935
#	214003
#	235792
#
# Disc length: 3512 seconds
#
# Revision: 0
# Processed by: cddbd v1.5.1PL0 Copyright (c) Steve Scherf et al.
# Submitted via: dBpowerAMP V4.0
#
DISCID=8c0db60b
DTITLE=Big Chief Monk Bouderux - Mr Stranger Man
DYEAR=2003
DGENRE=Blues
TTITLE0=In the Morning (Jokomo)
TTITLE1=Sew Sew Sew
TTITLE2=Battle of New Orleans
TTITLE3=Shotgun Joe
TTITLE4=The Tambourine
TTITLE5=Katie Mae
TTITLE6=Speak Your Mind
TTITLE7=Hold 'em Joe
TTITLE8=Firewater
TTITLE9=Mr Stranger Man
TTITLE10=Black Johnny
EXTD=2003 Shanachie Entertainment Corp. Produced by Anders Osbourne, feat. Dr John, Cyril Neville, Tab Benoit, The Golden Eagles.
EXTT0=
EXTT1=
EXTT2=
EXTT3=
EXTT4=
EXTT5=
EXTT6=
EXTT7=
EXTT8=
EXTT9=
EXTT10=
PLAYORDER=
